<mxfile host="app.diagrams.net" modified="2024-05-13T15:46:26.856Z" agent="Mozilla/5.0 (Windows NT 10.0; Win64; x64; rv:125.0) Gecko/20100101 Firefox/125.0" etag="apQaXBcBpZkhCv_9mpib" version="24.4.0" type="device">
  <diagram name="Strona-1" id="1LmlqZaSIq5Pb2Ul3i_X">
    <mxGraphModel dx="2074" dy="1067" grid="1" gridSize="10" guides="1" tooltips="1" connect="1" arrows="1" fold="1" page="1" pageScale="1" pageWidth="827" pageHeight="1169" math="0" shadow="0">
      <root>
        <mxCell id="0" />
        <mxCell id="1" parent="0" />
        <mxCell id="SudeirI0dtzNOkGXeIxb-7" value="" style="edgeStyle=orthogonalEdgeStyle;rounded=0;orthogonalLoop=1;jettySize=auto;html=1;" edge="1" parent="1" source="SudeirI0dtzNOkGXeIxb-1" target="SudeirI0dtzNOkGXeIxb-5">
          <mxGeometry relative="1" as="geometry" />
        </mxCell>
        <mxCell id="SudeirI0dtzNOkGXeIxb-1" value="Siłownie" style="swimlane;fontStyle=0;childLayout=stackLayout;horizontal=1;startSize=26;horizontalStack=0;resizeParent=1;resizeParentMax=0;resizeLast=0;collapsible=1;marginBottom=0;align=center;fontSize=14;" vertex="1" parent="1">
          <mxGeometry x="40" y="20" width="180" height="100" as="geometry" />
        </mxCell>
        <mxCell id="SudeirI0dtzNOkGXeIxb-2" value="Sprzęt do ćwiczeń" style="text;strokeColor=none;fillColor=none;spacingLeft=4;spacingRight=4;overflow=hidden;rotatable=0;points=[[0,0.5],[1,0.5]];portConstraint=eastwest;fontSize=12;whiteSpace=wrap;html=1;" vertex="1" parent="SudeirI0dtzNOkGXeIxb-1">
          <mxGeometry y="26" width="180" height="30" as="geometry" />
        </mxCell>
        <mxCell id="SudeirI0dtzNOkGXeIxb-3" value="Opaski mierzące parametry człowieka" style="text;strokeColor=none;fillColor=none;spacingLeft=4;spacingRight=4;overflow=hidden;rotatable=0;points=[[0,0.5],[1,0.5]];portConstraint=eastwest;fontSize=12;whiteSpace=wrap;html=1;" vertex="1" parent="SudeirI0dtzNOkGXeIxb-1">
          <mxGeometry y="56" width="180" height="44" as="geometry" />
        </mxCell>
        <mxCell id="SudeirI0dtzNOkGXeIxb-16" style="edgeStyle=orthogonalEdgeStyle;rounded=0;orthogonalLoop=1;jettySize=auto;html=1;entryX=0;entryY=0.25;entryDx=0;entryDy=0;" edge="1" parent="1" source="SudeirI0dtzNOkGXeIxb-5" target="SudeirI0dtzNOkGXeIxb-14">
          <mxGeometry relative="1" as="geometry" />
        </mxCell>
        <mxCell id="SudeirI0dtzNOkGXeIxb-5" value="IBM Watson IoT Platform" style="rounded=1;whiteSpace=wrap;html=1;" vertex="1" parent="1">
          <mxGeometry x="324" y="150" width="180" height="100" as="geometry" />
        </mxCell>
        <mxCell id="SudeirI0dtzNOkGXeIxb-8" value="Raw Data" style="text;strokeColor=none;fillColor=none;spacingLeft=4;spacingRight=4;overflow=hidden;rotatable=0;points=[[0,0.5],[1,0.5]];portConstraint=eastwest;fontSize=12;whiteSpace=wrap;html=1;" vertex="1" parent="1">
          <mxGeometry x="290" y="30" width="70" height="30" as="geometry" />
        </mxCell>
        <mxCell id="SudeirI0dtzNOkGXeIxb-9" value="Extract" style="text;html=1;align=center;verticalAlign=middle;resizable=0;points=[];autosize=1;strokeColor=#6c8ebf;fillColor=#dae8fc;" vertex="1" parent="1">
          <mxGeometry x="420" y="108" width="60" height="30" as="geometry" />
        </mxCell>
        <mxCell id="SudeirI0dtzNOkGXeIxb-10" value="IBM Cloud Pak for Data" style="rounded=1;whiteSpace=wrap;html=1;" vertex="1" parent="1">
          <mxGeometry x="590" y="310" width="180" height="100" as="geometry" />
        </mxCell>
        <mxCell id="SudeirI0dtzNOkGXeIxb-30" style="edgeStyle=orthogonalEdgeStyle;rounded=0;orthogonalLoop=1;jettySize=auto;html=1;entryX=1;entryY=0.5;entryDx=0;entryDy=0;" edge="1" parent="1" source="SudeirI0dtzNOkGXeIxb-11" target="SudeirI0dtzNOkGXeIxb-12">
          <mxGeometry relative="1" as="geometry" />
        </mxCell>
        <mxCell id="SudeirI0dtzNOkGXeIxb-11" value="&lt;div&gt;IBM Watson Studio&lt;/div&gt;&lt;div&gt;IBM Machine Learning&lt;br&gt;&lt;/div&gt;" style="rounded=1;whiteSpace=wrap;html=1;" vertex="1" parent="1">
          <mxGeometry x="324" y="440" width="180" height="100" as="geometry" />
        </mxCell>
        <mxCell id="SudeirI0dtzNOkGXeIxb-26" style="edgeStyle=orthogonalEdgeStyle;rounded=0;orthogonalLoop=1;jettySize=auto;html=1;entryX=0;entryY=0.5;entryDx=0;entryDy=0;dashed=1;" edge="1" parent="1" source="SudeirI0dtzNOkGXeIxb-12" target="SudeirI0dtzNOkGXeIxb-27">
          <mxGeometry relative="1" as="geometry">
            <mxPoint x="30" y="190" as="targetPoint" />
            <Array as="points">
              <mxPoint x="20" y="490" />
              <mxPoint x="20" y="200" />
            </Array>
          </mxGeometry>
        </mxCell>
        <mxCell id="SudeirI0dtzNOkGXeIxb-12" value="IBM Cloud Object Storage" style="rounded=1;whiteSpace=wrap;html=1;" vertex="1" parent="1">
          <mxGeometry x="40" y="440" width="180" height="100" as="geometry" />
        </mxCell>
        <mxCell id="SudeirI0dtzNOkGXeIxb-13" value="IBM Streams" style="rounded=1;whiteSpace=wrap;html=1;" vertex="1" parent="1">
          <mxGeometry x="590" y="150" width="180" height="100" as="geometry" />
        </mxCell>
        <mxCell id="SudeirI0dtzNOkGXeIxb-20" value="" style="edgeStyle=orthogonalEdgeStyle;rounded=0;orthogonalLoop=1;jettySize=auto;html=1;" edge="1" parent="1" source="SudeirI0dtzNOkGXeIxb-14" target="SudeirI0dtzNOkGXeIxb-11">
          <mxGeometry relative="1" as="geometry">
            <Array as="points">
              <mxPoint x="680" y="490" />
            </Array>
          </mxGeometry>
        </mxCell>
        <mxCell id="SudeirI0dtzNOkGXeIxb-14" value="" style="rounded=0;whiteSpace=wrap;html=1;fillColor=none;strokeColor=#7EA6E0;" vertex="1" parent="1">
          <mxGeometry x="570" y="110" width="220" height="340" as="geometry" />
        </mxCell>
        <mxCell id="SudeirI0dtzNOkGXeIxb-15" value="Transform" style="text;html=1;align=center;verticalAlign=middle;resizable=0;points=[];autosize=1;strokeColor=#6c8ebf;fillColor=#dae8fc;" vertex="1" parent="1">
          <mxGeometry x="640" y="60" width="80" height="30" as="geometry" />
        </mxCell>
        <mxCell id="SudeirI0dtzNOkGXeIxb-21" value="Transformed Data" style="text;html=1;align=center;verticalAlign=middle;resizable=0;points=[];autosize=1;strokeColor=none;fillColor=none;" vertex="1" parent="1">
          <mxGeometry x="540" y="460" width="120" height="30" as="geometry" />
        </mxCell>
        <mxCell id="SudeirI0dtzNOkGXeIxb-22" value="Load" style="text;html=1;align=center;verticalAlign=middle;resizable=0;points=[];autosize=1;strokeColor=#6c8ebf;fillColor=#dae8fc;" vertex="1" parent="1">
          <mxGeometry x="105" y="400" width="50" height="30" as="geometry" />
        </mxCell>
        <mxCell id="SudeirI0dtzNOkGXeIxb-28" style="edgeStyle=orthogonalEdgeStyle;rounded=0;orthogonalLoop=1;jettySize=auto;html=1;entryX=0;entryY=0.5;entryDx=0;entryDy=0;" edge="1" parent="1" source="SudeirI0dtzNOkGXeIxb-27" target="SudeirI0dtzNOkGXeIxb-5">
          <mxGeometry relative="1" as="geometry" />
        </mxCell>
        <mxCell id="SudeirI0dtzNOkGXeIxb-27" value="IBM Cognos Analytics" style="rounded=1;whiteSpace=wrap;html=1;" vertex="1" parent="1">
          <mxGeometry x="40" y="150" width="180" height="100" as="geometry" />
        </mxCell>
        <mxCell id="SudeirI0dtzNOkGXeIxb-29" value="Feedback" style="text;html=1;align=center;verticalAlign=middle;resizable=0;points=[];autosize=1;strokeColor=none;fillColor=none;" vertex="1" parent="1">
          <mxGeometry x="230" y="158" width="80" height="30" as="geometry" />
        </mxCell>
      </root>
    </mxGraphModel>
  </diagram>
</mxfile>
